<?xml version="1.0" encoding="utf-8"?>
<!-- Generator: Adobe Illustrator 24.3.0, SVG Export Plug-In . SVG Version: 6.00 Build 0)  -->
<svg version="1.1" id="Layer_1" xmlns="http://www.w3.org/2000/svg" xmlns:xlink="http://www.w3.org/1999/xlink" x="0px" y="0px"
	 viewBox="0 0 50 50" style="enable-background:new 0 0 50 50;" xml:space="preserve">
<style type="text/css">
	.st0{fill:#ED3024;}
	.st1{fill:#FFFFFF;}
</style>
<path class="st0" d="M41.5,50h-33C3.8,50,0,46.2,0,41.5l0-33C0,3.8,3.8,0,8.5,0l33,0C46.2,0,50,3.8,50,8.5v33
	C50,46.2,46.2,50,41.5,50z"/>
<path class="st1" d="M43,38.3c-2.2,4-6.6,5.4-7.9,5.8c-0.8,0.2-1.4,0.3-2.7,0.3h0l-14.8-0.1c0,0-1,0-2-0.3c-0.7-0.2-1.6-0.5-2.3-0.8
	c-0.9-0.4-1.9-1-3.2-2.3l-0.2-0.2c-1.1-1.1-2.1-2.7-2.6-4c-0.3-0.8-0.4-1.1-0.6-1.8c-0.2-1-0.2-2-0.2-2.1l0.1-14.6
	c0.1-1.3,0.2-1.9,0.4-2.7c0.4-1.3,1.8-5.7,5.9-7.8c2.3-1.3,4.7-1.9,7-1.9c3.6,0,6,1.6,6.1,1.7c6.4,3.9,6.5,10.3,6.5,11.2
	c0.9,0,7.3,0.2,11.1,6.7C43.4,25.3,47.2,30.9,43,38.3"/>
<path class="st0" d="M38.5,27.7c-1.1-2.1-2.9-3.5-5.5-4c-0.2,0-0.4-0.1-0.6-0.1l-0.3,0c-0.2,0-0.4,0-0.8-0.1l-0.2,0l-4.2,0l0-4.2
	c0-0.6,0-0.9,0-1.1l0-0.3c0-0.2,0-0.4-0.1-0.6c-0.5-2.6-1.8-4.5-3.9-5.6c-1.6-0.8-3.1-0.9-3.1-0.9l-0.2,0c-0.4,0-0.7,0-1.1,0.1
	c-6.9,0.9-6.9,7.5-6.9,7.8l-0.1,12.3c0,2.5,0.6,4.4,2,5.8c1.4,1.3,3.3,2,5.8,2l12.4,0.1c0.7,0,6.9-0.1,7.8-6.7
	c0.1-0.4,0.1-0.8,0.1-1.3C39.3,30.8,39.3,29.3,38.5,27.7"/>
</svg>
