<?xml version="1.0" encoding="utf-8"?>
<!-- Generator: Adobe Illustrator 24.3.0, SVG Export Plug-In . SVG Version: 6.00 Build 0)  -->
<svg version="1.1" id="Layer_1" xmlns="http://www.w3.org/2000/svg" xmlns:xlink="http://www.w3.org/1999/xlink" x="0px" y="0px"
	 viewBox="0 0 50 45.4" style="enable-background:new 0 0 50 45.4;" xml:space="preserve">
<style type="text/css">
	.st0{fill:#E52561;}
	.st1{fill:#020102;}
	.st2{fill:#FFFFFF;}
</style>
<g>
	<path class="st0" d="M25.1,0C16.1,0,8.9,7.2,8.9,16.2v16.2h16.2c8.9,0,16.2-7.2,16.2-16.2S34,0,25.1,0z"/>
	<path class="st1" d="M0.8,45.4c-0.2,0-0.4-0.1-0.6-0.2C0.1,45,0,44.8,0,44.6v-7c0-0.2,0.1-0.4,0.2-0.6c0.2-0.2,0.4-0.2,0.6-0.2h2.3
		c0.9,0,1.7,0.2,2.4,0.6c0.7,0.4,1.2,1,1.5,1.6c0.3,0.7,0.5,1.4,0.5,2.1c0,0.7-0.2,1.4-0.5,2.1c-0.3,0.7-0.8,1.2-1.5,1.6
		c-0.7,0.4-1.5,0.6-2.4,0.6H0.8z M3,43.8c0.6,0,1.1-0.1,1.5-0.3c0.4-0.2,0.8-0.5,1-1c0.2-0.4,0.4-0.9,0.4-1.4c0-0.5-0.1-1-0.4-1.4
		c-0.2-0.4-0.6-0.7-1-1c-0.4-0.2-0.9-0.3-1.5-0.3H1.7v5.5H3z"/>
	<path class="st1" d="M16.8,45.4c-0.2,0-0.4-0.1-0.6-0.2C16.1,45,16,44.8,16,44.6v-4.9c0-0.2,0.1-0.4,0.2-0.6
		c0.2-0.2,0.4-0.2,0.6-0.2c0.2,0,0.4,0.1,0.6,0.2c0.2,0.2,0.2,0.4,0.2,0.6v4.9c0,0.2-0.1,0.4-0.2,0.6C17.2,45.3,17,45.4,16.8,45.4z
		 M16.8,38.3c-0.2,0-0.5-0.1-0.6-0.3c-0.2-0.2-0.3-0.4-0.3-0.6v0c0-0.2,0.1-0.5,0.3-0.6c0.2-0.2,0.4-0.3,0.6-0.3h0.1
		c0.2,0,0.5,0.1,0.6,0.3c0.2,0.2,0.3,0.4,0.3,0.6v0c0,0.2-0.1,0.5-0.3,0.6C17.3,38.2,17.1,38.3,16.8,38.3L16.8,38.3z"/>
	<g>
		<path class="st1" d="M13.7,38.7c-0.2,0-0.4,0.1-0.6,0.2c-0.2,0.2-0.2,0.4-0.2,0.6v0.1c0,0,0,0,0,0v3.1c0,0.8-0.7,1.1-1.3,1.1
			c-0.7,0-1.3-0.3-1.3-1.1v-3.2c0-0.2-0.1-0.4-0.2-0.6c-0.2-0.2-0.4-0.2-0.6-0.2c-0.2,0-0.4,0.1-0.6,0.2c-0.2,0.2-0.2,0.4-0.2,0.6
			v3.3c0,0.5,0.1,0.9,0.3,1.3c0.2,0.4,0.5,0.7,0.8,0.9c0.4,0.2,0.8,0.3,1.3,0.3c0.5,0,1-0.1,1.3-0.4c0.3-0.2,0.4-0.5,0.5-0.5
			c0.1,0,0.1,0,0.1,0.1c0,0.3,0.1,0.4,0.2,0.6c0.2,0.2,0.4,0.2,0.6,0.2c0.2,0,0.4-0.1,0.6-0.2c0.2-0.2,0.2-0.4,0.2-0.6v-2
			c0,0,0,0,0,0v-3c0-0.2-0.1-0.4-0.2-0.6C14.1,38.8,13.9,38.7,13.7,38.7z"/>
	</g>
	<path class="st0" d="M30.6,45.4c-0.2,0-0.3,0-0.5-0.1c-0.1-0.1-0.3-0.2-0.4-0.3l0,0l-3.9-5.4v5.1c0,0.2-0.1,0.4-0.2,0.6
		c-0.2,0.2-0.4,0.2-0.6,0.2c-0.2,0-0.4-0.1-0.6-0.2c-0.2-0.2-0.2-0.4-0.2-0.6v-6.7c0-0.3,0.1-0.5,0.3-0.7c0.2-0.2,0.5-0.3,0.7-0.3
		h0.1c0.2,0,0.6,0.1,0.9,0.5l0,0l3.9,5.2v-4.8c0-0.2,0.1-0.4,0.2-0.6c0.2-0.2,0.4-0.2,0.6-0.2c0.2,0,0.4,0.1,0.6,0.2
		c0.2,0.2,0.2,0.4,0.2,0.6v6.7c0,0.3-0.1,0.5-0.3,0.7c-0.2,0.2-0.5,0.3-0.7,0.3H30.6z"/>
	<path class="st0" d="M47.2,45.4c-0.2,0-0.4-0.1-0.6-0.2c-0.2-0.1-0.3-0.3-0.4-0.5l0,0l-1-2.9l-1,2.9l0,0c-0.1,0.2-0.2,0.4-0.4,0.5
		c-0.2,0.1-0.4,0.2-0.6,0.2c-0.2,0-0.4-0.1-0.6-0.2c-0.2-0.1-0.3-0.3-0.4-0.5l-1.7-4.8c0-0.1-0.1-0.2-0.1-0.3c0-0.2,0.1-0.4,0.3-0.6
		c0.2-0.2,0.4-0.2,0.6-0.2c0.2,0,0.3,0,0.5,0.1c0.2,0.1,0.3,0.2,0.3,0.4l1.1,3.5l1.1-3.4c0.1-0.2,0.2-0.3,0.3-0.5
		c0.2-0.1,0.4-0.2,0.6-0.2c0.2,0,0.4,0.1,0.6,0.2c0.2,0.1,0.3,0.3,0.3,0.5l1.1,3.4l1.1-3.5c0.1-0.2,0.2-0.3,0.3-0.4
		c0.1-0.1,0.3-0.1,0.5-0.1c0.2,0,0.5,0.1,0.6,0.2c0.2,0.2,0.3,0.4,0.3,0.6c0,0.1,0,0.2-0.1,0.3l-1.7,4.8c-0.1,0.2-0.2,0.4-0.4,0.5
		C47.7,45.3,47.4,45.4,47.2,45.4z"/>
	<path class="st1" d="M21.5,45.4c-1.3,0-2-0.6-2-1.8l0-3.3h-0.1c-0.2,0-0.4-0.1-0.5-0.2c-0.1-0.1-0.2-0.3-0.2-0.5
		c0-0.2,0.1-0.4,0.2-0.5c0.1-0.1,0.3-0.2,0.5-0.2h0.1v-0.9c0-0.2,0.1-0.4,0.2-0.6c0.2-0.2,0.4-0.2,0.6-0.2c0.2,0,0.4,0.1,0.6,0.2
		c0.2,0.2,0.2,0.4,0.2,0.6l0,0.2l0,0v0.6h1c0.2,0,0.4,0.1,0.5,0.2c0.1,0.1,0.2,0.3,0.2,0.5c0,0.2-0.1,0.4-0.2,0.5
		c-0.1,0.1-0.3,0.2-0.5,0.2h-1v3.2c0,0.2,0.2,0.5,0.4,0.5c0.2,0,0.9,0,1.1,0.1c0.2,0.1,0.3,0.3,0.3,0.5c0,0.3-0.2,0.5-0.4,0.7l0,0
		l0,0C22.1,45.4,21.8,45.4,21.5,45.4z"/>
	<path class="st2" d="M25.1,7.2c-4.9,0-9,4-9,9v9h9c4.9,0,9-4,9-9S30,7.2,25.1,7.2z M25.1,20.2h-4v-4c0-2.2,1.8-4,4-4s4,1.8,4,4
		S27.3,20.2,25.1,20.2z"/>
	<path class="st0" d="M36.5,38.6c-1.9,0-3.4,1.5-3.4,3.4c0,1.9,1.5,3.4,3.4,3.4c1.9,0,3.4-1.5,3.4-3.4
		C39.9,40.1,38.4,38.6,36.5,38.6z M36.5,43.8c-1,0-1.8-0.8-1.8-1.8c0-1,0.8-1.8,1.8-1.8c1,0,1.8,0.8,1.8,1.8
		C38.3,43,37.5,43.8,36.5,43.8z"/>
</g>
</svg>
