<?xml version="1.0" encoding="utf-8"?>
<!-- Generator: Adobe Illustrator 22.0.1, SVG Export Plug-In . SVG Version: 6.00 Build 0)  -->
<svg version="1.1" id="Layer_1" xmlns="http://www.w3.org/2000/svg" xmlns:xlink="http://www.w3.org/1999/xlink" x="0px" y="0px"
	 viewBox="0 0 220 100" style="enable-background:new 0 0 220 100;" xml:space="preserve">
<style type="text/css">
	.st0{fill:#242B57;}
	.st1{fill:#0286C8;}
</style>
<g>
	<polygon class="st0" points="86.124,27.504 115.072,27.504 115.072,36.278 95.63,36.278 95.63,45.052 113.608,45.052 
		113.608,53.83 95.63,53.83 95.63,70.648 86.124,70.648 	"/>
	<path class="st0" d="M121.895,27.504h16.026c2.234,0,4.348,0.203,6.337,0.607c1.991,0.408,3.728,1.109,5.212,2.104
		c1.484,0.996,2.659,2.336,3.533,4.021c0.874,1.685,1.31,3.809,1.31,6.369c0,2.519-0.404,4.631-1.217,6.337
		c-0.813,1.706-1.932,3.067-3.352,4.084c-1.421,1.014-3.11,1.735-5.056,2.163c-1.951,0.425-4.063,0.639-6.339,0.639h-6.947v16.819
		h-9.505V27.504z M131.401,45.786h6.34c0.851,0,1.673-0.08,2.466-0.244c0.793-0.163,1.503-0.437,2.135-0.822
		c0.627-0.385,1.134-0.915,1.522-1.584c0.385-0.672,0.579-1.513,0.579-2.53c0-1.099-0.256-1.981-0.764-2.65
		c-0.507-0.673-1.156-1.19-1.949-1.557c-0.792-0.364-1.674-0.598-2.651-0.701c-0.974-0.1-1.91-0.152-2.802-0.152h-4.876V45.786z"/>
	<polygon class="st0" points="171.011,48.1 156.751,27.504 168.694,27.504 177.895,42.615 186.732,27.504 198.25,27.504 
		184.295,47.918 199.895,70.65 187.95,70.65 177.411,53.28 167.172,70.65 155.898,70.65 	"/>
	<path class="st1" d="M44.491,62.553l-6.017-8.146c-0.893-1.211-2.436-2.808-2.436-4.407c0-1.595,1.535-3.192,2.436-4.408
		l6.017-8.153c0.288-0.392,0.561-0.667,0.83-0.889v-9.382c0-7.537-3.154-9.438-7.006-4.221L25.339,40.512
		c-1.928,2.612-5.234,6.048-5.234,9.489c0,3.436,3.315,6.874,5.234,9.502l12.975,17.544c3.852,5.221,7.006,3.337,7.006-4.215v-9.385
		C45.052,63.229,44.778,62.952,44.491,62.553"/>
	<path class="st0" d="M69.982,40.511l-12.98-17.564c-3.851-5.22-7.003-3.318-7.003,4.221v9.382c0.261,0.216,0.538,0.497,0.822,0.889
		l6.027,8.153c0.897,1.216,2.434,2.812,2.434,4.408c0,1.596-1.537,3.196-2.434,4.408l-6.027,8.144
		c-0.284,0.403-0.562,0.676-0.822,0.898v9.38c0,7.555,3.152,9.432,7.003,4.215l12.98-17.546c1.927-2.628,5.233-6.07,5.233-9.504
		C75.214,46.56,71.909,43.124,69.982,40.511"/>
</g>
</svg>
