<?xml version="1.0" encoding="utf-8"?>
<!-- Generator: Adobe Illustrator 22.0.1, SVG Export Plug-In . SVG Version: 6.00 Build 0)  -->
<svg version="1.1" id="Layer_1" xmlns="http://www.w3.org/2000/svg" xmlns:xlink="http://www.w3.org/1999/xlink" x="0px" y="0px"
	 viewBox="0 0 50 29.91842" style="enable-background:new 0 0 50 29.91842;" xml:space="preserve">
<style type="text/css">
	.st0{fill:#FCB32E;}
	.st1{fill:#EC1E30;}
	.st2{fill:#FFFFFF;}
</style>
<g>
	<path class="st0" d="M25,26.0466c2.65516,2.40506,6.17727,3.87182,10.04103,3.87182C43.3037,29.91842,50,23.22002,50,14.95897
		C50,6.69769,43.3037,0,35.04103,0C31.17727,0,27.65516,1.46608,25,3.87158c-3.01992,2.73663-4.91795,6.68989-4.91795,11.08739
		C20.08205,19.35511,21.98008,23.30861,25,26.0466"/>
	<path class="st1" d="M29.83418,13.37473c-0.05576-0.53649-0.14134-1.06519-0.25309-1.58309h-9.16126
		c0.11657-0.53969,0.26205-1.06817,0.43437-1.58469h8.29251c-0.18128-0.54246-0.39262-1.07116-0.63356-1.58333h-7.02229
		c0.2561-0.54796,0.54601-1.0755,0.86384-1.58448h5.29656c-0.34581-0.55301-0.72741-1.08171-1.14092-1.58331h-3.01782
		c0.46431-0.56335,0.96744-1.09388,1.50851-1.58472c-2.65528-2.40459-6.17727-3.87064-10.04206-3.87064
		C6.69734,0.00047,0,6.69724,0,14.95944c0,8.26152,6.69734,14.95782,14.95897,14.95782c3.86479,0,7.38678-1.46561,10.04206-3.87066
		c0.54004-0.49129,1.0451-1.02021,1.50931-1.58422h-3.01782c-0.41339-0.50209-0.79201-1.03123-1.13782-1.58425h5.29656
		c0.3178-0.50895,0.60579-1.0372,0.86189-1.58401h-7.02229c-0.24003-0.51309-0.45526-1.04018-0.63666-1.58333h8.29251
		c0.17233-0.51699,0.31895-1.045,0.43437-1.58516c0.11175-0.51814,0.19733-1.04615,0.25309-1.58309
		c0.05576-0.52021,0.08377-1.04914,0.08377-1.5831C29.91795,14.42387,29.88994,13.89541,29.83418,13.37473"/>
	<g>
		<path class="st2" d="M34.89555,11.52708l-0.26597,1.64687c-0.57893-0.29186-1.00024-0.40935-1.44977-0.40935
			c-1.21341,0-2.06336,1.17165-2.06336,2.84148c0,1.15262,0.57204,1.84815,1.5154,1.84815c0.39951,0,0.84192-0.12369,1.38-0.38872
			l-0.28592,1.7288c-0.5989,0.16338-0.9844,0.22212-1.43485,0.22212c-1.74739,0-2.83736-1.25634-2.83736-3.27496
			c0-2.71346,1.50438-4.60907,3.65747-4.60907c0.27605,0,0.51998,0.02639,0.72628,0.07825l0.66568,0.16751
			C34.70922,11.45179,34.75212,11.46833,34.89555,11.52708"/>
		<path class="st2" d="M29.68389,12.65582c-0.04888-0.00987-0.10372-0.01492-0.16361-0.01492
			c-0.53191,0-0.83571,0.27191-1.33296,1.00186l0.14249-0.93555h-1.46859l-0.99037,6.17175h1.62508
			c0.57985-3.77404,0.73429-4.42528,1.51241-4.42528c0.05071,0,0.05461-0.00092,0.11955,0.00712
			c0.14432-0.74576,0.34374-1.29281,0.61657-1.79053L29.68389,12.65582"/>
		<path class="st2" d="M20.3292,18.8021c-0.44539,0.14066-0.79109,0.20031-1.16674,0.20031
			c-0.82986,0-1.28329-0.47819-1.28329-1.355c0-0.17325,0.01595-0.35864,0.04784-0.55301l0.09867-0.60464l0.07573-0.48832
			l0.70436-4.21049h1.61406l-0.18633,0.91626h0.82897l-0.22315,1.50095h-0.83195l-0.42737,2.5744
			c-0.01997,0.11175-0.02789,0.19733-0.02789,0.25516c0,0.3178,0.1673,0.45641,0.55395,0.45641
			c0.18528,0,0.32779-0.01814,0.43839-0.05783L20.3292,18.8021"/>
		<path class="st2" d="M14.09112,14.65745c0,0.78019,0.37861,1.31623,1.23453,1.72079
			c0.65652,0.30885,0.75817,0.3995,0.75817,0.67945c0,0.38458-0.2889,0.55783-0.93062,0.55783
			c-0.48313,0-0.93358-0.07573-1.45264-0.24416l-0.22419,1.42385l0.07275,0.014l0.29694,0.06173
			c0.09568,0.01995,0.23805,0.03786,0.42439,0.05392c0.38562,0.03487,0.68347,0.05163,0.89377,0.05163
			c1.71068,0,2.50177-0.65147,2.50177-2.05833c0-0.84697-0.33077-1.34307-1.14379-1.71778
			c-0.67957-0.3123-0.75826-0.38139-0.75826-0.66846c0-0.33364,0.27008-0.50414,0.79407-0.50414
			c0.31792,0,0.75321,0.03489,1.16477,0.09317l0.23211-1.42912c-0.42039-0.06678-1.05705-0.12071-1.42775-0.12071
			C14.71389,12.57114,14.08618,13.52022,14.09112,14.65745"/>
		<path class="st2" d="M47.29298,18.87896h-1.53537l0.07986-0.60579c-0.44654,0.47615-0.90686,0.68542-1.50254,0.68542
			c-1.18063,0-1.96082-1.01814-1.96082-2.56155c0-2.05281,1.21045-3.78391,2.64231-3.78391c0.63058,0,1.11086,0.26,1.55534,0.8449
			l0.35568-2.16708h1.60189L47.29298,18.87896 M44.89689,17.42529c0.75723,0,1.28914-0.85775,1.28914-2.08035
			c0-0.785-0.30175-1.20953-0.86073-1.20953c-0.73843,0-1.26048,0.85982-1.26048,2.07325
			C44.06482,17.0157,44.34386,17.42529,44.89689,17.42529"/>
		<path class="st2" d="M25.2889,18.74336c-0.55588,0.1705-1.09491,0.25309-1.66284,0.25105
			c-1.81532-0.00094-2.76083-0.9484-2.76083-2.76373c0-2.1182,1.20356-3.67698,2.83553-3.67698
			c1.33813,0,2.19095,0.87244,2.19095,2.24281c0,0.45482-0.05874,0.89814-0.20032,1.52275h-3.227
			c-0.01206,0.09476-0.01504,0.13652-0.01504,0.19228c0,0.71756,0.48132,1.08217,1.42282,1.08217
			c0.5809,0,1.10396-0.11955,1.68681-0.3917L25.2889,18.74336 M24.37734,15.07395c0.00999-0.12851,0.01492-0.23453,0.01492-0.31437
			c0-0.50207-0.285-0.79558-0.76815-0.79558c-0.51711,0-0.88574,0.39469-1.03626,1.10605L24.37734,15.07395z"/>
		<polygon class="st2" points="7.93474,18.87783 6.31081,18.87783 7.2413,13.04546 5.16392,18.87783 4.05801,18.87783 
			3.91952,13.07941 2.94315,18.87783 1.4227,18.87783 2.69302,11.29048 5.02843,11.29048 5.09326,15.98745 6.66844,11.29048 
			9.19016,11.29048 		"/>
		<path class="st2" d="M11.93309,16.12903c-0.17038-0.01995-0.24505-0.025-0.36266-0.025c-0.9196,0-1.38588,0.31597-1.38588,0.93875
			c0,0.38343,0.22809,0.62851,0.58182,0.62851C11.42792,17.67128,11.90522,17.04162,11.93309,16.12903 M13.11473,18.87783h-1.34605
			l0.03191-0.63953c-0.41156,0.5062-0.95952,0.74623-1.70277,0.74623c-0.87979,0-1.48351-0.68749-1.48351-1.68589
			c0-1.50233,1.05017-2.37799,2.85149-2.37799c0.18436,0,0.42049,0.01631,0.66063,0.04775
			c0.05174-0.20377,0.06471-0.29052,0.06471-0.40066c0-0.40937-0.28397-0.56128-1.04214-0.56128
			c-0.46238,0-0.98635,0.06631-1.34709,0.17141l-0.22614,0.0661L9.4303,14.28298l0.22511-1.38644
			c0.80909-0.23773,1.34307-0.32723,1.94289-0.32723c1.39483,0,2.13223,0.62712,2.13223,1.8098
			c0,0.30382-0.02399,0.53537-0.13161,1.22285l-0.33973,2.18705l-0.05576,0.39445l-0.04187,0.31299l-0.02892,0.21408
			L13.11473,18.87783z"/>
		<path class="st2" d="M37.51606,16.12903c-0.16958-0.01995-0.24529-0.025-0.36278-0.025c-0.91948,0-1.386,0.31597-1.386,0.93875
			c0,0.38343,0.22832,0.62851,0.58194,0.62851C37.01192,17.67128,37.48808,17.04162,37.51606,16.12903 M38.69758,18.87783h-1.34605
			l0.03191-0.63953c-0.41144,0.5062-0.9594,0.74623-1.70265,0.74623c-0.87979,0-1.48351-0.68749-1.48351-1.68589
			c0-1.50233,1.04799-2.37799,2.85137-2.37799c0.18333,0,0.41945,0.01631,0.66063,0.04775
			c0.0507-0.20377,0.06471-0.29052,0.06471-0.40066c0-0.40937-0.28385-0.56128-1.04225-0.56128
			c-0.46328,0-0.98624,0.06631-1.34697,0.17141l-0.22602,0.0661l-0.14547,0.03901l0.22511-1.38644
			c0.80909-0.23773,1.34307-0.32723,1.94289-0.32723c1.39471,0,2.13199,0.62712,2.13199,1.8098
			c0,0.30382-0.02479,0.53537-0.13149,1.22285l-0.33961,2.18705l-0.05576,0.39445l-0.04199,0.31299l-0.02893,0.21408
			L38.69758,18.87783z"/>
		<path class="st2" d="M43.05265,12.65582c-0.04979-0.00987-0.10372-0.01492-0.16246-0.01492
			c-0.53395,0-0.83686,0.27191-1.33411,1.00186l0.14248-0.93555h-1.46859l-0.98922,6.17175h1.62393
			c0.58194-3.77404,0.7343-4.42528,1.51333-4.42528c0.04979,0,0.04796-0.00183,0.11175,0.00597
			c0.1455-0.74461,0.34466-1.29165,0.61773-1.78938L43.05265,12.65582"/>
	</g>
</g>
</svg>
