<?xml version="1.0" encoding="utf-8"?>
<!-- Generator: Adobe Illustrator 22.0.1, SVG Export Plug-In . SVG Version: 6.00 Build 0)  -->
<svg version="1.1" id="Layer_1" xmlns="http://www.w3.org/2000/svg" xmlns:xlink="http://www.w3.org/1999/xlink" x="0px" y="0px"
	 viewBox="0 0 100 100" style="enable-background:new 0 0 100 100;" xml:space="preserve">
<style type="text/css">
	.st0{fill:#0D60A8;}
	.st1{fill:#FFFFFF;}
	.st2{fill:#F8D704;}
</style>
<g>
	<path class="st0" d="M67.834,20H32.166C25.459,20,20,25.459,20,32.166v35.668C20,74.543,25.459,80,32.166,80h35.668
		C74.541,80,80,74.543,80,67.834V32.166C80,25.459,74.541,20,67.834,20"/>
	<path class="st1" d="M43.774,44.836h-3.109c-0.91,0-2.09,0.644-2.432,1.502l0.315-1.645h-3.799l-1.687,9.457h3.802l1.051-5.986
		h4.089c0,0-0.523,2.965-0.756,4.294c-0.231,1.327,0.67,1.651,1.115,1.651h1.988l1.297-7.359
		C45.541,45.698,44.828,44.836,43.774,44.836"/>
	<polygon class="st1" points="32.008,44.693 31.298,48.748 34.185,44.693 	"/>
	<polygon class="st1" points="36.518,29.872 23.801,29.872 23.248,33.01 27.688,33.01 25.91,43.11 29.74,43.11 31.527,33.01 
		35.965,33.01 	"/>
	<path class="st1" d="M39.151,40.009l0.556-3.16h-3.406l-0.558,3.16H39.151z M33.781,43.11c-1.053,0-1.762-0.861-1.577-1.916
		l0.977-5.533c0.183-1.053,1.202-1.916,2.251-1.916h6.235c1.055,0,1.767,0.863,1.574,1.916l-0.973,5.533
		c-0.187,1.055-1.202,1.916-2.251,1.916H33.781z"/>
	<path class="st1" d="M58.866,40.008l0.561-3.16h4.936l0.546-3.103H58.56c-1.055,0-2.071,0.864-2.256,1.916l-0.975,5.533
		c-0.187,1.055,0.523,1.913,1.579,1.913h6.174l0.544-3.099H58.866z"/>
	<path class="st1" d="M51.106,40.008h-4.177l1.101-6.263h-3.328l-1.308,7.449c-0.188,1.055,0.521,1.913,1.575,1.913h3.246
		c1.054,0,1.916-0.624,2.594-1.439c0,0,0.375,1.088,0.906,1.33c0.541,0.247,2.162,0.188,2.162,0.188l1.668-9.441h-3.332
		L51.106,40.008z"/>
	<path class="st1" d="M75.109,33.795h-3.105c-0.914,0-1.797,0.646-2.137,1.504l0.893-5.09h-3.5l-2.275,12.898h3.506l1.052-5.985
		h3.798c0,0-0.52,2.962-0.754,4.295c-0.235,1.323,0.668,1.648,1.107,1.648h1.697l1.298-7.355
		C76.872,34.653,76.164,33.795,75.109,33.795"/>
	<path class="st1" d="M62.626,57.3c-1.414,0-2.372-1.171-2.123-2.582l1.311-7.437c0.248-1.419,1.617-2.58,3.037-2.58h7.933
		c1.413,0,2.373,1.162,2.124,2.58l-1.311,7.437c-0.251,1.411-1.618,2.582-3.033,2.582H62.626z M70.016,53.823l1-5.646h-5.624
		l-0.997,5.646H70.016z"/>
	<path class="st1" d="M54.936,53.823H49.31l0.995-5.646h9.122l0.601-3.476H49.765c-1.421,0-2.783,1.162-3.031,2.58l-1.314,7.437
		c-0.25,1.411,0.704,2.582,2.122,2.582h7.935c1.419,0,2.788-1.171,3.033-2.582l0.803-4.564h-3.736L54.936,53.823z"/>
	<polygon class="st2" points="49.323,63.226 45.669,70.756 43.352,70.756 43.078,66.2 40.864,70.756 38.535,70.756 38.089,63.226 
		39.738,63.226 40.026,69.134 42.866,63.226 44.545,63.226 44.832,69.134 47.672,63.226 	"/>
	<polygon class="st2" points="56.222,70.756 54.611,70.756 56.211,63.226 57.82,63.226 	"/>
	<polygon class="st2" points="58.87,70.756 57.254,70.756 58.854,63.226 60.464,63.226 	"/>
	<path class="st2" d="M69.997,70.756h-1.298c-0.598,0-1.019-0.058-1.253-0.174c-0.237-0.119-0.354-0.355-0.354-0.717
		c0-0.199,0.031-0.435,0.09-0.706l1.258-5.933h1.61L69.646,65.1h1.556l-0.3,1.36H69.37l-0.459,2.148
		c-0.041,0.217-0.063,0.363-0.063,0.432c0,0.149,0.047,0.247,0.15,0.286c0.1,0.047,0.303,0.068,0.607,0.068h0.682L69.997,70.756z"/>
	<path class="st2" d="M37.083,65.268c-0.236-0.119-0.654-0.18-1.256-0.18h-2.304c-0.661,0-1.169,0.121-1.514,0.372
		c-0.343,0.247-0.579,0.662-0.7,1.238l-0.511,2.448c-0.036,0.149-0.063,0.281-0.077,0.396c-0.019,0.119-0.027,0.227-0.027,0.322
		c0,0.177,0.027,0.319,0.08,0.427c0.05,0.109,0.137,0.197,0.26,0.266c0.123,0.072,0.287,0.119,0.497,0.146
		c0.212,0.031,0.469,0.039,0.787,0.039h3.915l0.289-1.347h-3.302c-0.306,0-0.508-0.025-0.607-0.074
		c-0.1-0.047-0.153-0.144-0.153-0.292c0-0.107,0.02-0.244,0.053-0.42l0.003-0.003h0.681v0.003h3.743l0.406-1.91
		c0.06-0.282,0.09-0.519,0.09-0.72C37.436,65.626,37.319,65.394,37.083,65.268 M35.67,67.248h-1.799h-1.068
		c0.035-0.175,0.076-0.314,0.124-0.421c0.048-0.103,0.109-0.182,0.185-0.241c0.072-0.06,0.168-0.094,0.286-0.112
		c0.119-0.015,0.264-0.026,0.438-0.026h1.283c0.42,0,0.629,0.131,0.629,0.392C35.747,66.868,35.721,67.003,35.67,67.248"/>
	<path class="st2" d="M54.384,65.544c-0.058-0.112-0.15-0.202-0.277-0.267c-0.124-0.067-0.292-0.112-0.497-0.139
		c-0.204-0.025-0.458-0.038-0.764-0.038h-3.902l-0.291,1.361h3.302c0.304,0,0.508,0.023,0.609,0.065
		c0.099,0.045,0.149,0.141,0.149,0.288c0,0.071-0.019,0.213-0.066,0.434h-1.288h-1.263c-0.374,0-0.687,0.021-0.935,0.058
		c-0.251,0.04-0.459,0.117-0.626,0.232c-0.164,0.112-0.295,0.27-0.389,0.482c-0.099,0.212-0.185,0.486-0.263,0.824l-0.066,0.315
		c-0.06,0.271-0.095,0.506-0.095,0.707c0,0.183,0.031,0.335,0.088,0.446c0.058,0.114,0.149,0.202,0.275,0.271
		c0.126,0.064,0.291,0.11,0.495,0.132c0.207,0.027,0.462,0.042,0.768,0.042h4.165l0.862-4.058c0.06-0.272,0.091-0.508,0.091-0.706
		C54.467,65.809,54.44,65.66,54.384,65.544 M49.767,69.395c-0.234,0-0.354-0.099-0.354-0.302c0-0.122,0.05-0.232,0.145-0.334
		c0.096-0.1,0.222-0.151,0.382-0.151h1.739l0.003-0.003h0.675l-0.167,0.79H49.767z"/>
	<path class="st2" d="M66.502,65.268c-0.236-0.119-0.655-0.18-1.257-0.18H62.94c-0.663,0-1.166,0.121-1.511,0.372
		c-0.347,0.247-0.58,0.662-0.701,1.238l-0.512,2.448c-0.035,0.149-0.061,0.281-0.08,0.396c-0.014,0.119-0.021,0.227-0.021,0.322
		c0,0.177,0.021,0.319,0.078,0.427c0.05,0.109,0.139,0.197,0.261,0.266c0.122,0.072,0.287,0.119,0.497,0.146
		c0.208,0.031,0.471,0.039,0.785,0.039h3.916l0.286-1.347h-3.299c-0.305,0-0.507-0.025-0.609-0.074
		c-0.101-0.047-0.15-0.144-0.15-0.292c0-0.107,0.019-0.244,0.052-0.42v-0.003h0.679v0.003h3.746l0.409-1.91
		c0.061-0.282,0.091-0.519,0.091-0.72C66.858,65.626,66.738,65.394,66.502,65.268 M65.088,67.248h-1.696h-1.17
		c0.034-0.175,0.075-0.314,0.124-0.421c0.047-0.103,0.11-0.182,0.183-0.241c0.077-0.06,0.17-0.094,0.286-0.112
		c0.118-0.015,0.267-0.026,0.441-0.026h1.284c0.416,0,0.628,0.131,0.628,0.392C65.167,66.868,65.141,67.003,65.088,67.248"/>
</g>
</svg>
