<?xml version="1.0" encoding="utf-8"?>
<!-- Generator: Adobe Illustrator 22.0.1, SVG Export Plug-In . SVG Version: 6.00 Build 0)  -->
<svg version="1.1" id="Layer_1" xmlns="http://www.w3.org/2000/svg" xmlns:xlink="http://www.w3.org/1999/xlink" x="0px" y="0px"
	 viewBox="0 0 50 15.3298" style="enable-background:new 0 0 50 15.3298;" xml:space="preserve">
<style type="text/css">
	.st0{fill:#0058A0;}
	.st1{fill:#FAA61A;}
</style>
<g>
	<polygon class="st0" points="17.61414,15.10909 20.14402,0.25806 24.19373,0.25806 21.65926,15.10909 17.61414,15.10909 	"/>
	<path class="st0" d="M36.34262,0.62395C35.54085,0.32253,34.2838,0,32.71427,0c-3.99979,0-6.81747,2.01404-6.84236,4.90113
		c-0.02258,2.13365,2.01124,3.32484,3.54685,4.03501c1.5765,0.72808,2.10643,1.19249,2.09958,1.84236
		c-0.0112,0.99556-1.25922,1.44959-2.42341,1.44959c-1.61931,0-2.48004-0.22414-3.80956-0.77895l-0.52091-0.23562l-0.56855,3.32491
		c0.94449,0.41449,2.69303,0.77334,4.50941,0.79139c4.25579,0,7.01671-1.99059,7.04845-5.0744
		c0.01585-1.6885-1.06218-2.97385-3.39739-4.03425c-1.41554-0.68747-2.28311-1.14552-2.27395-1.84139
		c0-0.61724,0.73383-1.2775,2.31923-1.2775c1.32269-0.02092,2.28311,0.2679,3.02814,0.56904l0.36472,0.17163L36.34262,0.62395
		L36.34262,0.62395z"/>
	<path class="st0" d="M46.72269,0.27229h-3.12771c-0.96946,0-1.69424,0.26454-2.12009,1.23168l-6.01104,13.61073h4.25128
		c0,0,0.69308-1.82991,0.85157-2.23183c0.46428,0,4.59316,0.00669,5.18422,0.00669c0.1202,0.51967,0.49162,2.22513,0.49162,2.22513
		H50L46.72269,0.27229L46.72269,0.27229z M41.73088,9.84555c0.33518-0.85621,1.61246-4.15226,1.61246-4.15226
		c-0.02256,0.03973,0.333-0.86005,0.53676-1.4178l0.27419,1.28083c0,0,0.77472,3.54516,0.9376,4.28923H41.73088L41.73088,9.84555z"
		/>
	<path class="st0" d="M14.21909,0.26886L10.2554,10.39694l-0.42353-2.0576C9.09579,5.96577,6.79689,3.395,4.22639,2.10861
		L7.8501,15.09787l4.28301-0.00588l6.37336-14.82314H14.21909L14.21909,0.26886z"/>
	<path class="st1" d="M6.57952,0.25977H0.04978L0,0.56835c5.07788,1.23004,8.43904,4.20082,9.83188,7.77099L8.41414,1.51333
		C8.16942,0.57293,7.45836,0.29272,6.57952,0.25977L6.57952,0.25977z"/>
</g>
</svg>
